<?xml version="1.0" encoding="UTF-8"?>
<svg enable-background="new 0 0 63.49 63.49" version="1.1" viewBox="0 0 63.49 63.49" xml:space="preserve" xmlns="http://www.w3.org/2000/svg">
  <path d="m41.909 24.038c-2.707 0-5.24 0.738-7.414 2.021-2.174-1.283-4.707-2.021-7.414-2.021-8.07 0-14.613 6.542-14.613 14.613s6.543 24.839 14.613 24.839c2.707 0 5.24-0.739 7.414-2.021 2.174 1.282 4.707 2.021 7.414 2.021 8.071 0 14.613-16.768 14.613-24.839s-6.542-14.613-14.613-14.613z" fill="#81BDA4" />
  <path d="m34.385 24.406s-6.537-7.319 3.202-12.13c9.739-4.812 6.297-8.786 6.297-8.786s14.336 12.625-0.604 18.171c0 0-4.788 1.653-8.895 2.745z" fill="#81BDA4" />
  <path d="m37.909 62.99c-2.585 0-5.13-0.622-7.414-1.807-2.283 1.185-4.829 1.807-7.414 1.807-9.147 0-16.113-17.554-16.113-26.339 0-8.885 7.229-16.113 16.113-16.113 2.585 0 5.131 0.622 7.414 1.807 2.284-1.185 4.829-1.807 7.414-1.807 8.885 0 16.113 7.228 16.113 16.113 0 8.785-6.966 26.339-16.113 26.339zm-7.414-5.021c0.264 0 0.527 0.069 0.762 0.208 2.011 1.186 4.311 1.813 6.652 1.813 6.909 0 13.113-15.852 13.113-23.339 0-7.231-5.882-13.113-13.113-13.113-2.341 0-4.641 0.627-6.652 1.813-0.471 0.278-1.055 0.278-1.524 0-2.011-1.186-4.311-1.813-6.652-1.813-7.23 0-13.113 5.882-13.113 13.113 0 7.487 6.204 23.339 13.113 23.339 2.341 0 4.641-0.627 6.652-1.813 0.235-0.139 0.498-0.208 0.762-0.208z" />
  <path d="m30.385 23.905c-0.421 0-0.83-0.177-1.119-0.5-0.13-0.147-3.194-3.634-2.395-7.761 0.53-2.732 2.565-4.991 6.051-6.713 4.708-2.326 5.778-4.228 5.996-5.155 0.188-0.8-0.156-1.284-0.196-1.337-0.466-0.614-0.407-1.501 0.157-2.026 0.565-0.525 1.418-0.559 1.996-0.048 0.318 0.279 7.764 6.923 6.575 13.335-0.598 3.227-3.171 5.706-7.648 7.367-0.23 0.081-4.92 1.695-9.032 2.788-0.127 0.034-0.256 0.05-0.385 0.05zm11.13-18.474c-0.957 2.199-3.393 4.277-7.264 6.19-2.601 1.285-4.093 2.83-4.435 4.593-0.347 1.794 0.546 3.535 1.161 4.475 3.761-1.05 7.77-2.431 7.814-2.446 3.385-1.257 5.317-2.973 5.709-5.09 0.471-2.535-1.23-5.502-2.985-7.722z" />
  <path d="m30.384 23.905c-0.283 0-0.568-0.079-0.822-0.246-0.692-0.454-0.885-1.384-0.431-2.076 0.167-0.255 4.15-6.281 8.603-8.698 0.728-0.396 1.638-0.125 2.034 0.602 0.395 0.729 0.125 1.639-0.603 2.034-3.786 2.056-7.489 7.651-7.526 7.707-0.288 0.439-0.767 0.677-1.255 0.677z" />
  <path d="m34.424 45.735-0.181-7.914 4.027 6.816c0.58 0.983 0.255 2.25-0.728 2.831-0.983 0.58-2.251 0.255-2.831-0.728-0.185-0.314-0.278-0.665-0.287-1.005z" />
  <path d="m24.954 44.637 4.027-6.816-0.181 7.914c-0.026 1.142-0.972 2.046-2.114 2.02-1.141-0.026-2.045-0.973-2.019-2.114 8e-3 -0.364 0.115-0.711 0.287-1.004z" />
</svg>
