<?xml version="1.0" encoding="UTF-8"?>
<svg enable-background="new 0 0 65.496 65.496" version="1.1" viewBox="0 0 65.496 65.496" xml:space="preserve" xmlns="http://www.w3.org/2000/svg">
  <path d="m65.496 26.676s-1.896-14.144 0-16.144h-9.842s4.91 10.714 2.319 15.069" fill="#81BDA4" />
  <path d="m38.953 43.216c-10.784 3.934-22.509 1.071-29.848-3.195-2.069-1.202-4.277 0.809-3.419 3.194 7e-3 0.021 0.015 0.044 0.024 0.066 4.182 11.467 22.049 19.617 38.265 13.703 16.215-5.915 24.639-23.654 20.457-35.121-8e-3 -0.022-0.016-0.044-0.025-0.066-0.879-2.377-3.863-2.494-4.672-0.243-2.87 7.99-9.998 17.729-20.782 21.662z" fill="#EDC951" />
  <path d="m28.683 58.464c-12.923 0-24.86-7.01-28.383-16.668-0.521-1.45-0.354-2.88 0.434-3.999 1.123-1.6 3.368-2.094 5.125-1.073 5.314 3.089 11.943 4.86 18.188 4.86 3.663 0 7.16-0.597 10.392-1.777 10.556-3.85 17.309-13.589 19.884-20.759 0.57-1.586 1.987-2.611 3.61-2.611 1.72 0 3.243 1.115 3.881 2.839 2.216 6.075 1.217 13.879-2.645 20.949-4.117 7.534-10.75 13.276-18.68 16.168-3.767 1.374-7.739 2.071-11.806 2.071zm-24.845-19.302c-0.253 0-0.49 0.132-0.65 0.36-0.128 0.181-0.31 0.577-0.091 1.185 3.077 8.439 14.068 14.757 25.586 14.757 3.716 0 7.342-0.636 10.778-1.889 7.244-2.643 13.309-7.895 17.075-14.789 3.455-6.323 4.385-13.205 2.487-18.409-0.262-0.708-0.731-0.94-1.09-0.94-0.256 0-0.601 0.109-0.786 0.624-2.929 8.154-10.162 18.364-21.68 22.565-3.563 1.299-7.405 1.958-11.42 1.958-6.758 0-13.938-1.919-19.696-5.266-0.177-0.103-0.35-0.156-0.513-0.156z" />
  <path d="m61.494 25.926c-0.741 0-1.386-0.549-1.486-1.304-0.574-4.359-1.263-11.197-0.588-15.09h-5.522c1.384 3.607 3.602 10.7 1.364 14.46-0.422 0.712-1.343 0.946-2.055 0.523-0.713-0.424-0.947-1.344-0.523-2.056 1.593-2.677-0.625-9.89-2.397-13.808-0.21-0.465-0.17-1.004 0.107-1.432 0.276-0.428 0.751-0.687 1.26-0.687h9.842c0.599 0 1.141 0.357 1.378 0.908 0.236 0.55 0.123 1.189-0.29 1.624-0.786 1.185-0.438 8.81 0.399 15.167 0.108 0.821-0.47 1.574-1.291 1.683-0.067 9e-3 -0.133 0.012-0.198 0.012z" />
  <path d="m30.355 52.801c-5.003 0-8.414-1.591-8.656-1.707-0.746-0.359-1.061-1.255-0.702-2.002 0.358-0.745 1.253-1.059 1.997-0.704 0.369 0.174 9.007 4.131 18.857-1.993 0.704-0.437 1.629-0.221 2.066 0.482 0.438 0.704 0.222 1.629-0.482 2.066-4.804 2.986-9.378 3.858-13.08 3.858z" />
</svg>
