<?xml version="1.0" encoding="UTF-8"?>
<svg enable-background="new 0 0 63 63" version="1.1" viewBox="0 0 63 63" xml:space="preserve" xmlns="http://www.w3.org/2000/svg">
  <path d="m50.777 37.71c0 11.726-6.356 24.79-16.527 24.79s-16.527-12.434-16.527-24.79 6.356-18.18 16.527-18.18 16.527 6.453 16.527 18.18z" fill="#81BDA4" />
  <path d="m36.621 17.31s2.017-8.654 10.779-3.351c0 0-6.975 1.41-6.975 5.41h-3.689l-0.115-2.059z" fill="#EDC951" />
  <path d="m38.948 12.812s-2.558-10.127-14.778-5.977c0 0 10.837 4.612 10.837 11.528l3.941-5.551z" fill="#EDC951" />
  <path d="m32.585 12.733s-3.573-0.752-7.377 2.209c0 0 4.035 0.655 4.957 2.845l4.842 0.576s-0.551-3.798-2.422-5.63z" fill="#EDC951" />
  <path d="m35.007 7.377s2.767-6.306 13.257-4.576c0 0-8.6 3.779-10.294 7.769 0 0-1.695-3.227-2.963-3.193z" fill="#EDC951" />
  <path d="m36.425 19.369h-3.689c-0.791 0-1.447-0.615-1.497-1.405l-0.115-1.809c-9e-3 -0.144 3e-3 -0.29 0.035-0.431 0.504-2.194 2.653-6.343 7.173-6.343 1.774 0 3.741 0.646 5.845 1.92 0.532 0.322 0.81 0.94 0.698 1.553s-0.591 1.092-1.203 1.205c-1.49 0.279-5.747 1.578-5.747 3.81 0 0.829-0.671 1.5-1.5 1.5zm-2.281-3h1.018c0.61-1.849 2.303-3.103 3.974-3.921-0.278-0.044-0.546-0.067-0.804-0.067-2.876 0-3.964 3.04-4.198 3.83l0.01 0.158z" />
  <path d="m31.007 18.864c-0.152 0-0.306-0.023-0.456-0.071-0.622-0.198-1.044-0.777-1.044-1.429 0-4.861-7.164-8.974-9.924-10.148-0.572-0.244-0.935-0.815-0.912-1.437 0.024-0.621 0.428-1.164 1.017-1.364 2.107-0.716 4.096-1.078 5.913-1.078 6.923 0 10.093 5.303 10.801 8.108 0.108 0.426 0.024 0.878-0.231 1.235l-3.941 5.552c-0.287 0.404-0.747 0.632-1.223 0.632zm-6.591-12.466c2.576 1.597 5.814 4.124 7.29 7.389l1.579-2.223c-0.591-1.508-2.568-5.227-7.684-5.227-0.383 0-0.779 0.02-1.185 0.061z" />
  <path d="m31.007 18.864c-0.059 0-0.119-4e-3 -0.178-0.011l-4.841-0.576c-0.536-0.064-0.996-0.41-1.205-0.908-0.45-1.065-2.809-1.783-3.815-1.947-0.59-0.096-1.066-0.531-1.213-1.109-0.148-0.578 0.061-1.189 0.531-1.555 2.918-2.271 5.77-2.61 7.21-2.61 0.799 0 1.305 0.098 1.398 0.117 0.28 0.059 0.537 0.197 0.741 0.396 2.17 2.125 2.793 6.047 2.856 6.487 0.067 0.462-0.084 0.928-0.41 1.262-0.284 0.292-0.673 0.454-1.074 0.454zm-3.924-3.478 1.964 0.234c-0.277-0.859-0.672-1.789-1.198-2.462-0.559-0.034-1.623-0.014-2.952 0.446 0.825 0.431 1.626 1.011 2.186 1.782z" />
  <path d="m33.969 11.069c-0.555 0-1.066-0.307-1.327-0.801-0.542-1.027-1.379-2.154-1.775-2.4-0.446-0.047-0.858-0.292-1.106-0.67-0.277-0.425-0.332-0.96-0.128-1.424 0.104-0.235 2.632-5.774 11.165-5.774 1.173 0 2.422 0.108 3.711 0.321 0.654 0.108 1.16 0.633 1.243 1.292 0.084 0.658-0.276 1.293-0.884 1.561-3.116 1.372-8.455 4.481-9.518 6.982-0.226 0.533-0.739 0.888-1.318 0.912-0.021 1e-3 -0.042 1e-3 -0.063 1e-3zm-0.825-5.183c0.309 0.284 0.598 0.608 0.862 0.948 1.22-1.381 2.902-2.635 4.525-3.662-2.896 0.462-4.541 1.761-5.387 2.714z" />
  <path d="m30.25 63c-11.284 0-18.027-13.367-18.027-26.29 0-12.691 6.402-19.68 18.027-19.68 11.288 0 18.027 7.357 18.027 19.68 0 12.643-6.892 26.29-18.027 26.29zm0-42.97c-9.831 0-15.027 5.768-15.027 16.68 0 11.201 5.745 23.29 15.027 23.29 8.989 0 15.027-12.043 15.027-23.29 0-10.6-5.477-16.68-15.027-16.68z" />
  <path d="m40.953 40.177c-0.407 0-0.814-0.166-1.11-0.491l-2.09-2.299-2.35 2.351c-0.586 0.586-1.536 0.586-2.121 0-0.586-0.586-0.586-1.536 0-2.121l3.462-3.463c0.291-0.29 0.68-0.464 1.097-0.439 0.41 0.01 0.798 0.187 1.074 0.49l3.148 3.463c0.557 0.613 0.512 1.562-0.101 2.119-0.287 0.261-0.649 0.39-1.009 0.39z" />
  <path d="m25.843 40.177c-0.408 0-0.814-0.166-1.11-0.491l-2.09-2.299-2.351 2.351c-0.586 0.586-1.536 0.586-2.121 0-0.586-0.586-0.586-1.536 0-2.121l3.463-3.463c0.29-0.29 0.684-0.464 1.096-0.439 0.41 0.01 0.799 0.187 1.074 0.49l3.148 3.463c0.558 0.613 0.513 1.562-0.1 2.119-0.288 0.261-0.649 0.39-1.009 0.39z" />
  <path d="m33.398 44.899c-0.408 0-0.814-0.165-1.11-0.491l-2.09-2.299-2.351 2.351c-0.585 0.586-1.535 0.586-2.121 0s-0.586-1.536 0-2.121l3.463-3.463c0.29-0.29 0.682-0.464 1.096-0.439 0.411 0.01 0.799 0.187 1.075 0.491l3.148 3.462c0.557 0.613 0.512 1.562-0.101 2.119-0.288 0.261-0.649 0.39-1.009 0.39z" />
  <path d="m40.953 29.789c-0.408 0-0.814-0.166-1.11-0.491l-2.09-2.299-2.35 2.35c-0.586 0.586-1.535 0.586-2.121 0-0.586-0.585-0.586-1.535 0-2.121l3.462-3.463c0.291-0.29 0.68-0.458 1.097-0.439 0.41 0.01 0.798 0.187 1.074 0.491l3.148 3.463c0.557 0.613 0.512 1.562-0.101 2.119-0.287 0.261-0.649 0.39-1.009 0.39z" />
  <path d="m25.843 29.789c-0.408 0-0.814-0.166-1.11-0.491l-2.09-2.299-2.351 2.35c-0.586 0.586-1.535 0.586-2.121 0-0.586-0.585-0.586-1.535 0-2.121l3.463-3.463c0.29-0.29 0.684-0.458 1.096-0.439 0.41 0.01 0.799 0.187 1.074 0.491l3.148 3.463c0.558 0.613 0.513 1.562-0.101 2.119-0.287 0.261-0.648 0.39-1.008 0.39z" />
  <path d="m33.398 34.511c-0.408 0-0.814-0.166-1.11-0.491l-2.09-2.299-2.351 2.351c-0.585 0.585-1.535 0.585-2.121 0-0.586-0.586-0.586-1.536 0-2.122l3.463-3.462c0.29-0.29 0.682-0.458 1.096-0.439 0.411 9e-3 0.799 0.187 1.075 0.49l3.148 3.463c0.557 0.613 0.512 1.562-0.101 2.119-0.288 0.261-0.649 0.39-1.009 0.39z" />
  <path d="m40.953 50.566c-0.408 0-0.814-0.166-1.11-0.491l-2.09-2.299-2.35 2.35c-0.586 0.586-1.535 0.586-2.121 0-0.586-0.585-0.586-1.535 0-2.121l3.462-3.463c0.291-0.29 0.68-0.452 1.097-0.439 0.41 0.01 0.798 0.187 1.074 0.491l3.148 3.463c0.557 0.613 0.512 1.561-0.101 2.119-0.287 0.261-0.649 0.39-1.009 0.39z" />
  <path d="m25.843 50.566c-0.408 0-0.814-0.166-1.11-0.491l-2.09-2.299-2.351 2.35c-0.586 0.586-1.535 0.586-2.121 0-0.586-0.585-0.586-1.535 0-2.121l3.463-3.463c0.29-0.29 0.684-0.452 1.096-0.439 0.41 0.01 0.799 0.187 1.074 0.491l3.148 3.463c0.558 0.613 0.513 1.561-0.101 2.119-0.287 0.261-0.648 0.39-1.008 0.39z" />
  <path d="m33.398 55.287c-0.408 0-0.814-0.165-1.11-0.49l-2.09-2.299-2.351 2.35c-0.585 0.586-1.536 0.586-2.121 0-0.586-0.586-0.586-1.536 0-2.121l3.463-3.463c0.29-0.29 0.682-0.452 1.096-0.438 0.411 9e-3 0.799 0.186 1.075 0.49l3.148 3.462c0.557 0.613 0.512 1.562-0.101 2.119-0.288 0.262-0.649 0.39-1.009 0.39z" />
</svg>
