<?xml version="1.0" encoding="UTF-8"?>
<svg enable-background="new 0 0 63.009 63.009" version="1.1" viewBox="0 0 63.009 63.009" xml:space="preserve" xmlns="http://www.w3.org/2000/svg">
  <path d="m12.406 31.581c0-10.763 11.586-17.582 22.349-17.582s22.348 6.819 22.348 17.582c0 10.764-11.585 30.928-22.348 30.928s-22.349-20.164-22.349-30.928z" fill="#E56A77" />
  <path d="m40.295 10.259c0.11-1.32 5.279-7.358 5.279-7.358-3.742-1.321-10.638 4.992-10.638 4.992l-4e-3 0.152-3e-3 -0.238s-6.896-6.441-10.638-5.12c0 0 5.169 6.041 5.278 7.361 0 0-7.856-0.337-10.608 5.383l7.648-0.162 7.705-1.674c0.954-5e-3 0.954 0.213 0.954 0.218l8.152 2.052h7.483c-2.751-7-10.608-5.606-10.608-5.606z" fill="#81BDA4" />
  <path d="m29.755 63.009c-11.828 0-23.849-20.804-23.849-32.428 0-11.786 12.379-19.082 23.849-19.082 11.469 0 23.848 7.296 23.848 19.082 0 11.624-12.02 32.428-23.848 32.428zm0-48.51c-10.027 0-20.849 6.149-20.849 16.082 0 10.231 11.045 29.428 20.849 29.428 9.803 0 20.848-19.197 20.848-29.428 0-9.933-10.822-16.082-20.848-16.082z" />
  <path d="m13.961 15.865c-0.51 0-0.986-0.227-1.262-0.657-0.282-0.438-0.316-0.976-0.09-1.446 2.105-4.374 6.679-5.68 9.523-6.069-0.983-1.394-2.55-3.37-3.981-5.043-0.321-0.376-0.437-0.884-0.309-1.362 0.129-0.477 0.483-0.86 0.95-1.025 0.496-0.175 1.041-0.263 1.618-0.263 3.408 0 7.624 3.193 9.55 4.819 1.946-1.621 6.109-4.724 9.485-4.724 0.581 0 1.129 0.09 1.628 0.266 0.469 0.166 0.825 0.553 0.952 1.034 0.126 0.481 6e-3 0.993-0.322 1.368-1.313 1.502-2.741 3.261-3.726 4.596 2.866 0.144 7.283 1.267 9.323 6.457 0.18 0.462 0.122 0.984-0.158 1.394-0.279 0.41-0.743 0.655-1.239 0.655h-7.483c-0.11 0-0.218-0.012-0.324-0.035l-7.928-1.754c-0.155 8e-3 -0.371 0.015-0.687 0.017l-7.553 1.641c-0.095 0.021-0.191 0-0.288 2e-3l-7.648 0.129h-0.031zm24.623-3h4.741c-1.673-2.035-4.101-2.524-6.045-2.524-0.992 0-1.676 0.136-1.683 0.138-0.465 0.092-0.945-0.036-1.297-0.35-0.353-0.313-0.539-0.774-0.5-1.245 0.074-0.882 1.117-2.585 3.109-5.078-1.965 0.915-4.164 2.715-5.602 3.983-0.231 0.531-0.76 1.076-1.375 1.076h-2e-3c-0.638 0-1.185-0.577-1.4-1.142-1.451-1.288-3.667-3.024-5.635-3.94 2.032 2.585 3.095 4.293 3.169 5.182 0.035 0.429-0.115 0.831-0.413 1.141-0.299 0.31-0.717 0.47-1.146 0.448l-0.181-8e-3c-0.9 0-4.705 0.134-7.288 2.321l4.396-0.094 7.565-1.644c0.102-0.022 0.206-0.034 0.31-0.034 0.446-3e-3 0.647-0.01 0.738-0.017 0.18-0.026 0.368-0.021 0.547 0.019l7.992 1.768z" />
  <path d="m16.727 29.21c0 0.918-0.744 1.662-1.661 1.662-0.918 0-1.661-0.744-1.661-1.662 0-0.917 0.743-1.661 1.661-1.661 0.917 0 1.661 0.744 1.661 1.661z" />
  <path d="m26.695 29.21c0 0.918-0.743 1.662-1.661 1.662-0.917 0-1.661-0.744-1.661-1.662 0-0.917 0.744-1.661 1.661-1.661 0.918 0 1.661 0.744 1.661 1.661z" />
  <path d="m36.664 29.21c0 0.918-0.744 1.662-1.662 1.662-0.917 0-1.661-0.744-1.661-1.662 0-0.917 0.744-1.661 1.661-1.661 0.918 0 1.662 0.744 1.662 1.661z" />
  <path d="m46.632 29.21c0 0.918-0.744 1.662-1.661 1.662-0.918 0-1.663-0.744-1.663-1.662 0-0.917 0.745-1.661 1.663-1.661 0.917 0 1.661 0.744 1.661 1.661z" />
  <path d="m21.158 36.963c0 0.918-0.744 1.662-1.662 1.662-0.917 0-1.661-0.744-1.661-1.662 0-0.917 0.744-1.661 1.661-1.661 0.918 0 1.662 0.744 1.662 1.661z" />
  <path d="m31.126 36.963c0 0.918-0.744 1.662-1.661 1.662-0.918 0-1.662-0.744-1.662-1.662 0-0.917 0.744-1.661 1.662-1.661 0.917 0 1.661 0.744 1.661 1.661z" />
  <path d="m41.094 36.963c0 0.918-0.745 1.662-1.662 1.662s-1.661-0.744-1.661-1.662c0-0.917 0.744-1.661 1.661-1.661s1.662 0.744 1.662 1.661z" />
  <path d="m21.158 21.934c0 0.917-0.744 1.661-1.662 1.661-0.917 0-1.661-0.744-1.661-1.661 0-0.918 0.744-1.661 1.661-1.661 0.918 0 1.662 0.743 1.662 1.661z" />
  <path d="m31.126 21.934c0 0.917-0.744 1.661-1.661 1.661-0.918 0-1.662-0.744-1.662-1.661 0-0.918 0.744-1.661 1.662-1.661 0.917 0 1.661 0.743 1.661 1.661z" />
  <path d="m41.094 21.934c0 0.917-0.745 1.661-1.662 1.661s-1.661-0.744-1.661-1.661c0-0.918 0.744-1.661 1.661-1.661s1.662 0.743 1.662 1.661z" />
  <path d="m25.588 46.931c0 0.918-0.744 1.661-1.661 1.661-0.918 0-1.662-0.743-1.662-1.661 0-0.917 0.744-1.661 1.662-1.661 0.917 0 1.661 0.744 1.661 1.661z" />
  <path d="m35.555 46.931c0 0.918-0.743 1.661-1.661 1.661-0.917 0-1.661-0.743-1.661-1.661 0-0.917 0.744-1.661 1.661-1.661 0.918 0 1.661 0.744 1.661 1.661z" />
  <path d="m31.126 54.684c0 0.918-0.744 1.661-1.661 1.661-0.918 0-1.662-0.743-1.662-1.661 0-0.917 0.744-1.661 1.662-1.661 0.917 0 1.661 0.744 1.661 1.661z" />
</svg>
