<svg id="Layer_1" enable-background="new 0 0 512 512" height="512" viewBox="0 0 512 512" width="512" xmlns="http://www.w3.org/2000/svg"><g><path d="m50.066 399.762h411.869c24.713-38.255 39.064-83.83 39.064-132.76 0-135.309-109.689-244.998-244.998-244.998s-244.999 109.689-244.999 244.998c0 48.93 14.351 94.506 39.064 132.76z" fill="#c0f98f"/><path d="m435.8 34.137-20.45-33.013c-1.776-.735-3.694-1.124-5.653-1.124h-87.377c-69.93 12.5-132.64 0-132.64 0h-87.376c-1.959 0-3.878.389-5.654 1.124l-45.46 45.46c-.735 1.776-1.124 3.694-1.124 5.654v347.524c20.248 31.343 47.458 57.765 79.439 77.087h250.643l-5.882-165.563 8.237-231.854z" fill="#12913f"/><path d="m461.934 399.762v-347.524c0-3.922-1.558-7.683-4.331-10.456l-14.15-14.15-60.951 51.799-8.237 231.854 5.931 166.927c32.977-19.433 61.007-46.359 81.738-78.45z" fill="#50dd89"/><path d="m443.454 27.632-60.951 51.799-5.108 143.764c-.85 23.926 18.315 43.784 42.256 43.784 23.352 0 42.283-18.931 42.283-42.283v-172.458c0-3.922-1.558-7.682-4.331-10.455z" fill="#70f2a4"/><path d="m68.546 27.632 60.951 51.799 5.108 143.764c.85 23.926-18.315 43.784-42.256 43.784-23.352 0-42.283-18.931-42.283-42.283v-172.458c0-3.922 1.558-7.682 4.331-10.455z" fill="#1ba552"/><g fill="#38c674"><path d="m129.497 79.432-32.847-78.308c-1.779.736-3.414 1.819-4.802 3.207l-37.451 37.451c-1.388 1.388-2.471 3.023-3.207 4.802z"/><path d="m382.503 79.432 78.308-32.847c-.736-1.779-1.819-3.415-3.207-4.802l-37.452-37.452c-1.388-1.388-3.023-2.471-4.802-3.207z"/><path d="m322.32 0h-132.64l-60.182 79.431s119.442 11.011 253.005 0z"/><path d="m129.498 79.432v397.417c9.033 5.457 18.449 10.344 28.194 14.618l.003-.007h196.61l.001.008c9.746-4.275 19.162-9.162 28.196-14.619v-397.417c-124.345 13.091-253.004 0-253.004 0z"/></g><path d="m129.497 79.432 126.503 231.854 126.503-231.854z" fill="#50dd89"/><path d="m256 512c34.966 0 68.212-7.341 98.305-20.54l-98.305-180.174-98.305 180.174c30.093 13.199 63.339 20.54 98.305 20.54z" fill="#1ba552"/></g></svg>