<svg id="Layer_1" enable-background="new 0 0 512 512" height="512" viewBox="0 0 512 512" width="512" xmlns="http://www.w3.org/2000/svg"><g><path d="m256 22.004c-135.309 0-244.998 109.689-244.998 244.998 0 80.398 38.728 151.75 98.544 196.422h292.908c59.817-44.672 98.544-116.024 98.544-196.422 0-135.309-109.689-244.998-244.998-244.998z" fill="#ffb464"/><path d="m399.996 146.519c-.34-1.39-.876-2.724-1.593-3.962l-47.771-82.467c-.584-1.008-1.285-1.939-2.079-2.78l-44.623 53.684v396.306c36.386-7.217 69.876-22.48 98.524-43.875l21.263-87.018c.285-1.167.429-2.363.429-3.564v-125.685c0-1.201-.144-2.397-.429-3.564z" fill="#876d93"/><path d="m161.368 60.09-47.771 82.466c-.717 1.238-1.254 2.572-1.594 3.962l-23.72 97.075c-.285 1.167-.429 2.363-.429 3.564v125.685c0 1.201.144 2.398.429 3.564l21.262 87.017c28.52 21.299 61.836 36.524 98.032 43.781v-395.882l-44.13-54.012c-.794.842-1.495 1.772-2.079 2.78z" fill="#543e5b"/><path d="m256 0v80.123s24.459 21.546 51.094 32.921l41.459-55.734c-.828-.877-1.759-1.657-2.781-2.315l-81.64-52.602c-2.475-1.595-5.304-2.393-8.132-2.393z" fill="#997da8"/><path d="m344.609 177.804c3.862 39.756 19.666 80.484 19.666 80.484l59.764-12.915c-.072-.599-.179-1.193-.322-1.779l-.127-.52-23.593-96.554c-.168-.687-.384-1.359-.646-2.014z" fill="#6c5475"/><path d="m344.609 442.196 47.217 28.722c3.609-2.409 7.157-4.902 10.628-7.494l21.263-87.018c.143-.587.25-1.181.322-1.779l-59.764-12.915s-13.974 35.171-19.666 80.484z" fill="#6c5475"/><g fill="#45304c"><path d="m256 0v80.123s-24.459 21.546-51.094 32.921l-41.459-55.734c.828-.877 1.759-1.657 2.78-2.315l81.64-52.602c2.476-1.595 5.305-2.393 8.133-2.393z"/><path d="m167.391 177.804c-3.862 39.756-19.666 80.484-19.666 80.484l-59.764-12.915c.072-.599.179-1.193.322-1.779l.127-.52 23.593-96.554c.168-.687.384-1.359.646-2.014z"/><path d="m87.961 374.627c.072.599.179 1.193.322 1.779l21.262 87.018c3.471 2.592 7.019 5.085 10.628 7.494l47.217-28.722c-5.693-45.313-19.666-80.484-19.666-80.484z"/></g><path d="m344.608 310v-132.196h.001l-37.515-64.76-51.094-32.921-51.094 32.921-37.514 64.76-.001.003v132.193z" fill="#997da8"/><path d="m250.667 149.333c27.333 42.667 90 132.972 90 132.972s1.433 2.083 3.941 4.543v-109.044l-37.515-64.759-51.093-32.922s-32.667 26.544-5.333 69.21z" fill="#a98bbc"/><path d="m344.608 310h-177.217v132.194l.001.002 37.31 64.408c16.545 3.525 33.702 5.396 51.298 5.396s34.753-1.871 51.298-5.396l37.311-64.408v-.001-132.195z" fill="#543e5b"/><path d="m147.725 361.712 19.666 80.484 88.609-132.196-88.609-132.196-19.666 80.484z" fill="#6c5475"/><path d="m344.608 442.196 19.667-80.485v-103.422l-19.667-80.485-88.608 132.196z" fill="#876d93"/><path d="m307.172 233.655c18.509 27.056 33.494 48.65 33.494 48.65s10.063 14.649 23.608 12.137v-36.153l-19.667-80.485z" fill="#997da8"/><path d="m430.202 94.748c-6.77 13.703-9.597 30.548-1.936 49.757 21.333 53.495 45.333 116.162 23.333 231.495 0 0-1.57 14.201 8.851 26.024 25.62-38.714 40.548-85.122 40.548-135.022 0-67.159-27.031-127.998-70.796-172.254z" fill="#fcc695"/><path d="m11.002 267.002c0 49.9 14.928 96.308 40.548 135.022 10.421-11.823 8.851-26.024 8.851-26.024-22-115.333 2-178 23.333-231.495 7.66-19.209 4.833-36.054-1.936-49.757-43.765 44.256-70.796 105.095-70.796 172.254z" fill="#fcc695"/></g></svg>