<svg enable-background="new 0 0 512 512" height="512" viewBox="0 0 512 512" width="512" xmlns="http://www.w3.org/2000/svg">
  <path d="m256 22.004c-135.309 0-244.998 109.689-244.998 244.998 0 108.659 70.745 200.781 168.681 232.859h152.634c97.937-32.078 168.681-124.2 168.681-232.859 0-135.309-109.689-244.998-244.998-244.998z" fill="#a3aaff" fill-opacity="0" />
  <path d="m332.317 499.861 127.563-190.69c1.956-2.924 2.697-6.398 2.229-9.741l-85.298-3.08-123.891 180.863.853 34.759c.743.007 1.483.028 2.227.028 26.649 0 52.297-4.271 76.317-12.139z" fill="#ffc839" />
  <path d="m386.306 419.155c-28.553 17.072-41.78-5.405-41.78-5.405l-18.913-28.503s-1.709-2.594-4.754-7.216l-67.939 99.181.853 34.759c.743.007 1.483.028 2.227.028 26.649 0 52.297-4.271 76.317-12.139z" fill="#ffb332" />
  <path d="m258.027.162c-5.072-.731-10.48 1.279-13.68 6.063l-192.227 287.354c-1.981 2.961-2.717 6.488-2.211 9.871h82.386l65.877-82.047 57.828-107.963z" fill="#ffc839" />
  <path d="m177.025 159.75c-16.5-25-4.401-46.31-4.401-46.31l-120.504 180.139c-1.981 2.961-2.717 6.488-2.211 9.871h82.386l65.877-82.047 8.739-16.316c-14.561-22.095-25.788-39.129-29.886-45.337z" fill="#ffb332" />
  <path d="m130.28 301.375h-80.528c0 2.718.789 5.437 2.367 7.796l127.563 190.691c24.02 7.867 49.669 12.138 76.318 12.138v-34.787z" fill="#fca027" />
  <path d="m462.247 301.375c0-2.719-.789-5.437-2.367-7.796l-192.227-287.354c-2.776-4.15-7.214-6.225-11.653-6.225v113.44l116.704 187.935z" fill="#ffdd40" />
  <path d="m372.704 301.375h89.543c0-2.719-.789-5.437-2.367-7.796l-120.505-180.139s-49.047-11.666-53.615 44.489c-.083 1.026-.151 2.06-.21 3.099z" fill="#ffe87f" />
  <path d="m381.719 301.375-125.719-187.935-125.72 187.935 125.72 187.935z" fill="#fff2bd" />
  <path d="m325.613 385.247c-.001-.001-81.888-124.3-124.765-189.361l-70.568 105.489 125.72 187.935z" fill="#ffe87f" />
  <g fill="#a3aaff" fill-opacity="0">
    <path d="m348.652 40.149c-1.913 10.629-1.225 23.145 5.841 36.037 18.943 34.564 104.665 161.908 104.665 161.908s16.357 23.025 41.783 24.418c-1.809-100.585-64.228-186.359-152.289-222.363z" />
    <path d="m11.059 262.512c25.426-1.393 41.783-24.418 41.783-24.418s85.722-127.344 104.665-161.908c7.066-12.892 7.754-25.408 5.841-36.037-88.062 36.004-150.48 121.778-152.289 222.363z" />
  </g>
</svg>