<svg enable-background="new 0 0 512 512" height="512" viewBox="0 0 512 512" width="512" xmlns="http://www.w3.org/2000/svg">
  <path d="m256 22.004c-135.309 0-244.998 109.689-244.998 244.998 0 99.918 59.82 185.854 145.595 223.978h198.805c85.775-38.124 145.595-124.06 145.595-223.978.001-135.309-109.688-244.998-244.997-244.998z" fill="#a3aaff" fill-opacity="0" />
  <path d="m43.293 321.605 113.304 169.375c29.302 13.024 61.631 20.46 95.642 20.972v-198.949h-210.706c-.546 2.931.036 6.025 1.76 8.602z" fill="#9b024e" />
  <path d="m246.327 5.155-203.034 303.509c-1.31 1.958-1.965 4.214-1.965 6.471h210.911v-314.494h-.069c-2.276.786-4.351 2.283-5.843 4.514z" fill="#b20453" />
  <path d="m259.798 511.952c33.997-.517 66.314-7.953 95.604-20.972l113.304-169.375c1.724-2.578 2.306-5.671 1.76-8.602h-210.668z" fill="#e80054" />
  <path d="m259.83.641h-.031v314.494h210.873c0-2.257-.655-4.513-1.965-6.471l-203.034-303.509c-1.492-2.231-3.567-3.728-5.843-4.514z" fill="#ff7186" />
  <path d="m256 313.003v198.997c17.559 0 34.681-1.862 51.193-5.373l69.918-181.575c1.489-3.867 2.061-7.984 1.746-12.048h-122.857z" fill="#cc0053" />
  <path d="m256 315.135h122.954c0-3.363-.614-6.726-1.843-9.917l-117.281-304.577c-1.238-.428-2.534-.641-3.83-.641z" fill="#e80054" />
  <path d="m133.143 313.003c-.315 4.064.257 8.182 1.746 12.048l69.918 181.575c16.512 3.512 33.634 5.374 51.193 5.374v-198.997z" fill="#b20453" />
  <path d="m134.889 305.218c-1.229 3.191-1.843 6.554-1.843 9.917h122.954v-315.135c-1.296 0-2.592.214-3.83.641z" fill="#cc0053" />
  <g fill="#a3aaff" fill-opacity="0">
    <path d="m348.652 40.149c-1.913 10.629-1.225 23.145 5.841 36.037 18.943 34.564 104.665 161.908 104.665 161.908s16.357 23.025 41.783 24.418c-1.809-100.585-64.228-186.359-152.289-222.363z" />
    <path d="m11.059 262.512c25.426-1.393 41.783-24.418 41.783-24.418s85.722-127.344 104.665-161.908c7.066-12.892 7.754-25.408 5.841-36.037-88.062 36.004-150.48 121.778-152.289 222.363z" />
  </g>
</svg>