<svg enable-background="new 0 0 512 512" height="512" viewBox="0 0 512 512" width="512" xmlns="http://www.w3.org/2000/svg">
  <path d="m91.943 448.952 328.129-.013c49.689-44.839 80.926-109.737 80.926-181.937 0-135.309-109.689-244.998-244.998-244.998s-244.998 109.689-244.998 244.998c0 72.206 31.243 137.111 80.941 181.95z" fill="#a3aaff" />
  <path d="m236.475 30.091c-2.478 29.107-13.61 70.99-52.568 105.23-51.637 45.385-58.769 129.087-105.301 195.187-5.908 8.392-12.26 16.163-19.059 23.366-4.254-22.778-6.523-46.672-6.523-71.304 0-146.953 80.583-267.688 183.585-281.28.614 8.299.778 18.102-.134 28.801z" fill="#3ab0fa" />
  <path d="m144.976 170.675c-21.315-26.644-27.159-65.717-28.347-93.503-39.162 51.51-63.605 124.474-63.605 205.398 0 24.632 2.269 48.525 6.523 71.304 6.799-7.203 13.151-14.973 19.059-23.366 33.758-47.954 46.783-105.169 71.104-150.299-.904-3.452-2.476-6.711-4.734-9.534z" fill="#1e9ef4" />
  <path d="m280.103 1.992c1.954 9.765 4.023 24.755 3.281 42.31-1.208 28.604-10.348 70.085-47.028 105.259-50.094 48.034-53.725 131.545-96.559 199.13-21.918 34.584-46.972 53.243-64.184 63.532 4.776 12.853 10.245 25.124 16.33 36.729 8.371 7.553 17.264 14.538 26.621 20.891 29.289-18.226 52.61-41.836 70.822-71.748 45.008-73.922 46.932-163.725 99.016-215.809 44.709-44.708 56.967-106.743 44.714-161.157-16.674-9.541-34.459-16.081-53.013-19.137z" fill="#86d8fc" />
  <path d="m118.564 469.842c29.289-18.226 52.61-41.836 70.822-71.748 10.152-16.674 18.108-34.157 24.947-51.833-1.683-4.179-4.46-7.877-8.007-10.779-21.225-17.358-26.328-45.116-27.502-59.781-.244-3.048-1.016-6.017-2.255-8.774-9.716 27.666-20.368 55.882-36.771 81.763-21.918 34.584-46.972 53.243-64.184 63.532 4.776 12.853 10.245 25.124 16.33 36.729 8.37 7.554 17.262 14.539 26.62 20.891z" fill="#56c2ff" />
  <path d="m448.374 308.82c3.703-3.703 7.123-7.464 10.311-11.263.186-4.964.291-9.958.291-14.986 0-58.91-12.956-113.604-35.108-158.877-.007.817-.015 1.636-.033 2.464-.689 32.57-10.095 79.979-50.985 120.871-56.013 56.014-57.863 151.58-105.619 229.65-7.762 12.689-16.422 24.279-26.011 34.865 4.891.291 9.816.457 14.78.457 41.012 0 79.662-10.089 113.624-27.904 26.7-63.898 35.7-132.227 78.75-175.277z" fill="#3ab0fa" />
  <path d="m423.868 123.693c-.007.817-.015 1.636-.033 2.464-.466 22.025-4.934 50.836-20.413 79.828 2.104 7.839 3.988 16.115 5.521 24.799 3.675 20.82 21.896 35.908 43.035 35.545l6.663-.115c-2.161-52.666-14.685-101.466-34.773-142.521z" fill="#56c2ff" />
  <path d="m287.979 453.683c-1.044-2.855-2.552-5.476-4.433-7.784-4.826 10.467-10.191 20.768-16.315 30.78-7.762 12.689-16.422 24.279-26.011 34.865 4.891.291 9.816.457 14.78.457 32.829 0 64.142-6.472 92.752-18.187-40.087-.013-55.27-25.084-60.773-40.131z" fill="#1e9ef4" />
  <path d="m331.311 20.104c6.509 28.958 15.089 102.062-43.97 161.122-71.548 71.548-49.016 212.926-170.07 287.721 36.152 24.883 79.307 40.32 125.915 42.722 73.801-82.502 66.633-199.488 130.725-263.579 39.72-39.721 50.553-85.436 51.408-121.376-22.664-47.622-55.41-85.127-94.008-106.61z" fill="#1e9ef4" />
  <path d="m425.318 126.713c-10.202-21.437-22.453-40.815-36.355-57.613-12.231 8.555-26.279 23.3-23.9 45.051.557 5.091 2.408 9.951 5.145 14.28 6.845 10.831 23.358 39.605 33.803 79.767 15.569-28.38 20.729-57.169 21.307-81.485z" fill="#3ab0fa" />
  <path d="m273.814 438.389c-42.685-19.418-54.683-65.826-57.97-86.693-.408-2.589-1.226-5.059-2.381-7.358-17.89 46.658-43.371 91.971-96.192 124.608 36.152 24.883 79.307 40.32 125.915 42.722 17.787-19.884 30.863-41.773 41.374-64.44-2.724-3.801-6.407-6.865-10.746-8.839z" fill="#0b78db" />
  <path d="m367.076 485.426c19.28-9.824 37.083-22.127 52.996-36.487 22.813-43.536 36.904-96.493 38.696-153.895-3.758 4.657-7.875 9.258-12.394 13.776-43.348 43.348-52.164 112.329-79.298 176.606z" fill="#86d8fc" />
  <path d="m256 0c8.704 0 17.28.765 25.696 2.245 5.456 27.69 11.288 95.092-44.303 148.398-67.494 64.72-50.14 195.222-161.216 263.068-7.289-19.331-13.022-39.976-16.956-61.623 63.543-68.178 65.566-166.804 123.696-217.894 49.892-43.85 54.595-100.157 52.219-132.719 6.86-.974 13.82-1.475 20.864-1.475z" fill="#56c2ff" />
  <path d="m177.413 269.04c-1.175-3.367-3.019-6.486-5.484-9.116-19.564-20.871-21.618-55.339-21.317-72.292.058-3.232-.462-6.431-1.513-9.44-28.833 52.747-41.607 122.105-89.877 173.897 3.934 21.646 9.667 42.292 16.956 61.623 60.046-36.678 82.558-91.665 101.235-144.672z" fill="#3ab0fa" />
</svg>