<?xml version="1.0" encoding="UTF-8"?>
<svg version="1.1" viewBox="0 0 528 328" xml:space="preserve" xmlns="http://www.w3.org/2000/svg" xmlns:cc="http://creativecommons.org/ns#" xmlns:dc="http://purl.org/dc/elements/1.1/" xmlns:rdf="http://www.w3.org/1999/02/22-rdf-syntax-ns#">
  <metadata>
    <rdf:RDF>
      <cc:Work rdf:about="">
        <dc:format>image/svg+xml</dc:format>
        <dc:type rdf:resource="http://purl.org/dc/dcmitype/StillImage" />
      </cc:Work>
    </rdf:RDF>
  </metadata>
  <g transform="matrix(1.3333 0 0 -1.3333 0 384)">
    <g transform="scale(.1)">
      <path d="m0 0v2880h3960v-2880h-3960" fill="#fff" fill-rule="evenodd" />
      <path d="m3865.7-143.2c-127.86 0-227.63 42.719-324.12 84.031-96.08 41.129-186.83 79.988-304.44 79.988-117.6 0-208.36-38.859-304.43-79.988-96.49-41.312-196.26-84.031-324.13-84.031-127.86 0-227.63 42.719-324.12 84.031-96.08 41.129-186.83 79.988-304.43 79.988-117.61 0-208.36-38.859-304.44-79.988-96.49-41.312-196.26-84.031-324.12-84.031s-227.64 42.719-324.12 84.031c-96.086 41.129-186.84 79.988-304.44 79.988-117.61 0-208.36-38.859-304.44-79.988-96.488-41.312-196.26-84.031-324.12-84.031-56.176 0-111.78 8.289-169.99 25.347l14.062 47.981c53.574-15.699 104.58-23.328 155.93-23.328 117.61 0 208.36 38.848 304.44 79.988 96.488 41.312 196.26 84.031 324.12 84.031 127.86 0 227.63-42.719 324.12-84.031 96.08-41.141 186.83-79.988 304.44-79.988 117.6 0 208.35 38.848 304.44 79.988 96.48 41.312 196.26 84.031 324.12 84.031s227.63-42.719 324.12-84.031c96.08-41.141 186.83-79.988 304.43-79.988 117.62 0 208.37 38.848 304.45 79.988 96.48 41.312 196.25 84.031 324.11 84.031 127.87 0 227.64-42.719 324.13-84.031 96.07-41.141 186.83-79.988 304.43-79.988 51.35 0 102.35 7.6289 155.93 23.328l14.06-47.981c-58.21-17.058-113.81-25.347-169.99-25.347" fill="#13283a" />
      <path d="m3865.7 102.83c-127.86 0-227.63 42.723-324.12 84.031-96.08 41.133-186.83 79.993-304.44 79.993-117.6 0-208.36-38.86-304.43-79.993-96.49-41.308-196.26-84.031-324.13-84.031-127.86 0-227.63 42.723-324.12 84.031-96.08 41.133-186.83 79.993-304.43 79.993-117.61 0-208.36-38.86-304.44-79.993-96.49-41.308-196.26-84.031-324.12-84.031s-227.64 42.723-324.12 84.031c-96.086 41.133-186.84 79.993-304.44 79.993-117.61 0-208.36-38.86-304.44-79.993-96.488-41.308-196.26-84.031-324.12-84.031-56.184 0-111.79 8.293-169.99 25.363l14.07 47.981c53.563-15.711 104.57-23.344 155.92-23.344 117.61 0 208.36 38.852 304.44 79.992 96.488 41.309 196.26 84.032 324.12 84.032 127.86 0 227.63-42.723 324.12-84.032 96.08-41.14 186.83-79.992 304.44-79.992 117.6 0 208.35 38.852 304.44 79.992 96.48 41.309 196.26 84.032 324.12 84.032s227.63-42.723 324.12-84.032c96.08-41.14 186.83-79.992 304.43-79.992 117.62 0 208.37 38.852 304.45 79.992 96.48 41.309 196.25 84.032 324.11 84.032 127.87 0 227.64-42.723 324.13-84.032 96.07-41.14 186.83-79.992 304.43-79.992 51.36 0 102.36 7.633 155.93 23.344l14.06-47.981c-58.2-17.07-113.8-25.363-169.99-25.363" fill="#13283a" />
      <path d="m3865.7 348.86c-127.86 0-227.63 42.723-324.12 84.032-96.08 41.14-186.83 80-304.44 80-117.6 0-208.36-38.86-304.43-80-96.49-41.309-196.26-84.032-324.13-84.032-127.86 0-227.63 42.723-324.12 84.032-96.08 41.14-186.83 80-304.43 80-117.61 0-208.36-38.86-304.44-80-96.49-41.309-196.26-84.032-324.12-84.032s-227.64 42.723-324.12 84.032c-96.086 41.14-186.84 80-304.44 80-117.61 0-208.36-38.86-304.44-80-96.488-41.309-196.26-84.032-324.12-84.032-56.184 0-111.79 8.301-169.99 25.36l14.07 47.98c53.563-15.699 104.57-23.34 155.92-23.34 117.61 0 208.36 38.86 304.44 80 96.488 41.313 196.26 84.032 324.12 84.032 127.86 0 227.63-42.719 324.12-84.032 96.08-41.14 186.83-80 304.44-80 117.6 0 208.35 38.86 304.44 80 96.48 41.313 196.26 84.032 324.12 84.032s227.63-42.719 324.12-84.032c96.08-41.14 186.83-80 304.43-80 117.62 0 208.37 38.86 304.45 80 96.48 41.313 196.25 84.032 324.11 84.032 127.87 0 227.64-42.719 324.13-84.032 96.07-41.14 186.83-80 304.43-80 51.37 0 102.38 7.641 155.93 23.34l14.07-47.98c-58.19-17.059-113.79-25.36-170-25.36" fill="#13283a" />
      <path d="m3865.7 594.89c-127.86 0-227.63 42.718-324.12 84.031-96.08 41.129-186.83 79.988-304.44 79.988-117.6 0-208.36-38.851-304.43-79.988-96.49-41.313-196.26-84.031-324.13-84.031-127.86 0-227.63 42.718-324.12 84.031-96.08 41.137-186.83 79.988-304.43 79.988-117.61 0-208.36-38.859-304.44-79.988-96.49-41.313-196.26-84.031-324.12-84.031s-227.64 42.718-324.12 84.031c-96.086 41.137-186.84 79.988-304.44 79.988-117.61 0-208.36-38.859-304.44-79.988-96.488-41.313-196.26-84.031-324.12-84.031-56.195 0-111.8 8.3-169.99 25.371l14.07 47.976c53.559-15.707 104.56-23.347 155.92-23.347 117.61 0 208.36 38.859 304.44 79.988 96.488 41.32 196.26 84.031 324.12 84.031 127.86 0 227.63-42.711 324.12-84.031 96.08-41.129 186.83-79.988 304.44-79.988 117.6 0 208.35 38.859 304.44 79.988 96.48 41.32 196.26 84.031 324.12 84.031s227.63-42.711 324.12-84.031c96.08-41.129 186.83-79.988 304.43-79.988 117.62 0 208.37 38.859 304.45 79.988 96.48 41.32 196.25 84.031 324.11 84.031 127.87 0 227.64-42.711 324.13-84.031 96.07-41.129 186.83-79.988 304.43-79.988 51.36 0 102.36 7.64 155.93 23.347l14.07-47.976c-58.2-17.071-113.81-25.371-170-25.371" fill="#13283a" />
      <path d="m3865.7 840.92c-127.86 0-227.63 42.719-324.12 84.027-96.08 41.133-186.83 79.991-304.44 79.991-117.6 0-208.36-38.85-304.43-79.991-96.49-41.308-196.26-84.027-324.13-84.027-127.86 0-227.63 42.719-324.12 84.027-96.08 41.141-186.83 79.991-304.43 79.991-117.61 0-208.36-38.858-304.44-79.991-96.49-41.308-196.26-84.027-324.12-84.027s-227.64 42.719-324.12 84.027c-96.086 41.141-186.84 79.991-304.44 79.991-117.61 0-208.36-38.858-304.44-79.991-96.488-41.308-196.26-84.027-324.12-84.027-56.176 0-111.78 8.297-169.99 25.367l14.07 47.981c53.574-15.711 104.58-23.348 155.92-23.348 117.61 0 208.36 38.859 304.44 79.988 96.488 41.32 196.26 84.03 324.12 84.03 127.86 0 227.63-42.71 324.12-84.03 96.08-41.129 186.83-79.988 304.44-79.988 117.6 0 208.35 38.859 304.44 79.988 96.48 41.32 196.26 84.03 324.12 84.03s227.63-42.71 324.12-84.03c96.08-41.129 186.83-79.988 304.43-79.988 117.62 0 208.37 38.859 304.45 79.988 96.48 41.32 196.25 84.03 324.11 84.03 127.87 0 227.64-42.71 324.13-84.03 96.07-41.129 186.83-79.988 304.43-79.988 51.34 0 102.35 7.637 155.93 23.348l14.06-47.981c-58.21-17.07-113.82-25.367-169.99-25.367" fill="#13283a" />
      <path d="m3865.7 1087c-127.86 0-227.63 42.71-324.12 84.03-96.08 41.13-186.83 79.99-304.44 79.99-117.6 0-208.36-38.86-304.43-79.99-96.49-41.32-196.26-84.03-324.13-84.03-127.86 0-227.63 42.71-324.12 84.03-96.08 41.13-186.83 79.99-304.43 79.99-117.61 0-208.36-38.86-304.44-79.99-96.49-41.32-196.26-84.03-324.12-84.03s-227.64 42.71-324.12 84.03c-96.086 41.13-186.84 79.99-304.44 79.99-117.61 0-208.36-38.86-304.44-79.99-96.488-41.32-196.26-84.03-324.12-84.03-56.176 0-111.78 8.29-169.99 25.36l14.07 47.98c53.574-15.71 104.58-23.34 155.92-23.34 117.61 0 208.36 38.86 304.44 79.99 96.488 41.31 196.26 84.03 324.12 84.03 127.86 0 227.63-42.72 324.12-84.03 96.08-41.13 186.83-79.99 304.44-79.99 117.6 0 208.35 38.85 304.44 79.99 96.48 41.31 196.26 84.03 324.12 84.03s227.63-42.72 324.12-84.03c96.08-41.13 186.83-79.99 304.43-79.99 117.62 0 208.37 38.86 304.45 79.99 96.48 41.31 196.25 84.03 324.11 84.03 127.87 0 227.64-42.72 324.13-84.03 96.07-41.13 186.83-79.99 304.43-79.99 51.34 0 102.35 7.63 155.93 23.34l14.06-47.98c-58.21-17.07-113.82-25.36-169.99-25.36" fill="#13283a" />
      <path d="m3865.7 1333c-127.86 0-227.63 42.72-324.12 84.03-96.08 41.13-186.83 79.99-304.44 79.99-117.6 0-208.36-38.85-304.43-79.99-96.49-41.31-196.26-84.03-324.13-84.03-127.86 0-227.63 42.72-324.12 84.03-96.08 41.14-186.83 79.99-304.43 79.99-117.61 0-208.36-38.86-304.44-79.99-96.49-41.31-196.26-84.03-324.12-84.03s-227.64 42.72-324.12 84.03c-96.086 41.14-186.84 79.99-304.44 79.99-117.61 0-208.36-38.86-304.44-79.99-96.488-41.31-196.26-84.03-324.12-84.03-56.195 0-111.8 8.3-169.99 25.36l14.07 47.98c53.555-15.71 104.55-23.34 155.92-23.34 117.61 0 208.36 38.86 304.44 79.99 96.488 41.32 196.26 84.03 324.12 84.03 127.86 0 227.63-42.71 324.12-84.03 96.08-41.13 186.83-79.99 304.44-79.99 117.6 0 208.35 38.86 304.44 79.99 96.48 41.32 196.26 84.03 324.12 84.03s227.63-42.71 324.12-84.03c96.08-41.13 186.83-79.99 304.43-79.99 117.62 0 208.37 38.86 304.45 79.99 96.48 41.32 196.25 84.03 324.11 84.03 127.87 0 227.64-42.71 324.13-84.03 96.07-41.13 186.83-79.99 304.43-79.99 51.37 0 102.37 7.63 155.93 23.34l14.06-47.98c-58.19-17.06-113.79-25.36-169.99-25.36" fill="#13283a" />
      <path d="m3865.7 1579c-127.86 0-227.63 42.72-324.12 84.03-96.08 41.13-186.83 79.99-304.44 79.99-117.6 0-208.36-38.85-304.43-79.99-96.49-41.31-196.26-84.03-324.13-84.03-127.86 0-227.63 42.72-324.12 84.03-96.08 41.14-186.83 79.99-304.43 79.99-117.61 0-208.36-38.86-304.44-79.99-96.49-41.31-196.26-84.03-324.12-84.03s-227.64 42.72-324.12 84.03c-96.086 41.14-186.84 79.99-304.44 79.99-117.61 0-208.36-38.86-304.44-79.99-96.488-41.31-196.26-84.03-324.12-84.03-56.184 0-111.79 8.3-169.99 25.36l14.07 47.98c53.563-15.7 104.57-23.34 155.92-23.34 117.61 0 208.36 38.86 304.44 79.99 96.488 41.32 196.26 84.03 324.12 84.03 127.86 0 227.63-42.71 324.12-84.03 96.08-41.13 186.83-79.99 304.44-79.99 117.6 0 208.35 38.86 304.44 79.99 96.48 41.32 196.26 84.03 324.12 84.03s227.63-42.71 324.12-84.03c96.08-41.13 186.83-79.99 304.43-79.99 117.62 0 208.37 38.86 304.45 79.99 96.48 41.32 196.25 84.03 324.11 84.03 127.87 0 227.64-42.71 324.13-84.03 96.07-41.13 186.83-79.99 304.43-79.99 51.36 0 102.36 7.64 155.93 23.34l14.06-47.98c-58.2-17.06-113.8-25.36-169.99-25.36" fill="#13283a" />
      <path d="m3865.7 1825.1c-127.86 0-227.63 42.71-324.12 84.03-96.08 41.13-186.83 79.99-304.44 79.99-117.6 0-208.36-38.85-304.43-79.99-96.49-41.32-196.26-84.03-324.13-84.03-127.86 0-227.63 42.71-324.12 84.03-96.08 41.14-186.83 79.99-304.43 79.99-117.61 0-208.36-38.86-304.44-79.99-96.49-41.32-196.26-84.03-324.12-84.03s-227.64 42.71-324.12 84.03c-96.086 41.14-186.84 79.99-304.44 79.99-117.61 0-208.36-38.86-304.44-79.99-96.488-41.32-196.26-84.03-324.12-84.03-56.195 0-111.8 8.29-169.99 25.36l14.07 47.97c53.555-15.7 104.55-23.33 155.92-23.33 117.61 0 208.36 38.86 304.44 79.99 96.488 41.31 196.26 84.03 324.12 84.03 127.86 0 227.63-42.72 324.12-84.03 96.08-41.13 186.83-79.99 304.44-79.99 117.6 0 208.35 38.85 304.44 79.99 96.48 41.31 196.26 84.03 324.12 84.03s227.63-42.72 324.12-84.03c96.08-41.13 186.83-79.99 304.43-79.99 117.62 0 208.37 38.86 304.45 79.99 96.48 41.31 196.25 84.03 324.11 84.03 127.87 0 227.64-42.72 324.13-84.03 96.07-41.13 186.83-79.99 304.43-79.99 51.37 0 102.37 7.63 155.93 23.33l14.06-47.97c-58.19-17.07-113.79-25.36-169.99-25.36" fill="#13283a" />
      <path d="m3865.7 2071.1c-127.86 0-227.63 42.72-324.12 84.03-96.08 41.13-186.83 79.99-304.44 79.99-117.6 0-208.36-38.86-304.43-79.99-96.49-41.31-196.26-84.03-324.13-84.03-127.86 0-227.63 42.72-324.12 84.03-96.08 41.13-186.83 79.99-304.43 79.99-117.61 0-208.36-38.86-304.44-79.99-96.49-41.31-196.26-84.03-324.12-84.03s-227.64 42.72-324.12 84.03c-96.086 41.13-186.84 79.99-304.44 79.99-117.61 0-208.36-38.86-304.44-79.99-96.488-41.31-196.26-84.03-324.12-84.03-56.184 0-111.79 8.3-169.99 25.36l14.07 47.98c53.563-15.7 104.57-23.34 155.92-23.34 117.61 0 208.36 38.86 304.44 80 96.488 41.3 196.26 84.02 324.12 84.02 127.86 0 227.63-42.72 324.12-84.02 96.08-41.14 186.83-80 304.44-80 117.6 0 208.35 38.86 304.44 80 96.48 41.3 196.26 84.02 324.12 84.02s227.63-42.72 324.12-84.02c96.08-41.14 186.83-80 304.43-80 117.62 0 208.37 38.86 304.45 80 96.48 41.3 196.25 84.02 324.11 84.02 127.87 0 227.64-42.72 324.13-84.02 96.07-41.14 186.83-80 304.43-80 51.37 0 102.38 7.64 155.93 23.34l14.07-47.98c-58.19-17.06-113.79-25.36-170-25.36" fill="#13283a" />
      <path d="m3865.7 2317.1c-127.86 0-227.63 42.71-324.12 84.02-96.08 41.14-186.83 79.99-304.44 79.99-117.6 0-208.36-38.85-304.43-79.99-96.49-41.31-196.26-84.02-324.13-84.02-127.86 0-227.63 42.71-324.12 84.02-96.08 41.14-186.83 79.99-304.43 79.99-117.61 0-208.36-38.85-304.44-79.99-96.49-41.31-196.26-84.02-324.12-84.02s-227.64 42.71-324.12 84.02c-96.086 41.14-186.84 79.99-304.44 79.99-117.61 0-208.36-38.85-304.44-79.99-96.488-41.31-196.26-84.02-324.12-84.02-56.176 0-111.78 8.29-169.99 25.35l14.062 47.98c53.574-15.7 104.58-23.33 155.93-23.33 117.61 0 208.36 38.85 304.44 79.98 96.488 41.31 196.26 84.03 324.12 84.03 127.86 0 227.62-42.72 324.12-84.03 96.08-41.13 186.83-79.98 304.44-79.98 117.6 0 208.35 38.85 304.44 79.98 96.48 41.31 196.26 84.03 324.12 84.03s227.63-42.72 324.11-84.03c96.09-41.13 186.84-79.98 304.44-79.98 117.62 0 208.37 38.85 304.45 79.98 96.48 41.31 196.25 84.03 324.11 84.03 127.87 0 227.64-42.72 324.13-84.03 96.07-41.13 186.83-79.98 304.43-79.98 51.35 0 102.35 7.63 155.93 23.33l14.06-47.98c-58.21-17.06-113.81-25.35-169.99-25.35" fill="#13283a" />
      <path d="m3865.7 2563.2c-127.86 0-227.63 42.72-324.12 84.03-96.08 41.14-186.83 79.99-304.44 79.99-117.6 0-208.36-38.85-304.43-79.99-96.49-41.31-196.26-84.03-324.13-84.03-127.86 0-227.63 42.72-324.12 84.03-96.08 41.14-186.83 79.99-304.43 79.99-117.61 0-208.36-38.85-304.44-79.99-96.49-41.31-196.26-84.03-324.12-84.03s-227.64 42.72-324.12 84.03c-96.086 41.14-186.84 79.99-304.44 79.99-117.61 0-208.36-38.85-304.44-79.99-96.488-41.31-196.26-84.03-324.12-84.03-56.176 0-111.78 8.3-169.99 25.37l14.07 47.97c53.574-15.7 104.58-23.34 155.92-23.34 117.61 0 208.36 38.86 304.44 79.99 96.488 41.31 196.26 84.03 324.12 84.03 127.86 0 227.63-42.72 324.12-84.03 96.08-41.13 186.83-79.99 304.44-79.99 117.6 0 208.35 38.86 304.44 79.99 96.48 41.31 196.26 84.03 324.12 84.03s227.63-42.72 324.12-84.03c96.08-41.13 186.83-79.99 304.43-79.99 117.62 0 208.37 38.86 304.45 79.99 96.48 41.31 196.25 84.03 324.11 84.03 127.87 0 227.64-42.72 324.13-84.03 96.07-41.13 186.83-79.99 304.43-79.99 51.34 0 102.35 7.64 155.93 23.34l14.06-47.97c-58.21-17.07-113.82-25.37-169.99-25.37" fill="#13283a" />
      <path d="m3865.7 2809.2c-127.86 0-227.63 42.72-324.12 84.03-96.08 41.14-186.83 79.99-304.44 79.99-117.6 0-208.36-38.85-304.43-79.99-96.49-41.31-196.26-84.03-324.13-84.03-127.86 0-227.63 42.72-324.12 84.03-96.08 41.14-186.83 79.99-304.43 79.99-117.61 0-208.36-38.85-304.44-79.99-96.49-41.31-196.26-84.03-324.12-84.03s-227.64 42.72-324.12 84.03c-96.086 41.14-186.84 79.99-304.44 79.99-117.61 0-208.36-38.85-304.44-79.99-96.488-41.31-196.26-84.03-324.12-84.03-56.141 0-111.75 8.3-169.99 25.37l14.062 47.98c53.606-15.71 104.61-23.35 155.93-23.35 117.61 0 208.36 38.86 304.44 80 96.488 41.3 196.26 84.02 324.12 84.02 127.86 0 227.63-42.72 324.12-84.02 96.08-41.14 186.83-80 304.44-80 117.6 0 208.35 38.86 304.44 80 96.48 41.3 196.26 84.02 324.12 84.02s227.63-42.72 324.12-84.02c96.08-41.14 186.83-80 304.43-80 117.62 0 208.37 38.86 304.45 80 96.48 41.3 196.25 84.02 324.11 84.02 127.87 0 227.64-42.72 324.13-84.02 96.07-41.14 186.83-80 304.43-80 51.35 0 102.35 7.64 155.93 23.35l14.07-47.98c-58.21-17.07-113.82-25.37-170-25.37" fill="#13283a" />
    </g>
  </g>
</svg>
