<svg enable-background="new 0 0 512 512" height="512" viewBox="0 0 512 512" width="512" xmlns="http://www.w3.org/2000/svg">
  <path d="m77.916 435.237 356.16.016c41.481-43.888 66.922-103.095 66.922-168.251 0-135.309-109.689-244.998-244.998-244.998s-244.998 109.689-244.998 244.998c0 65.15 25.437 124.353 66.912 168.239z" fill="#2e4baa" />
  <path d="m28.636 58.329c-2.624 1.966-4.783 4.501-6.287 7.441l-19.678 44.324c-1.718 3.357-2.497 7.082-2.332 10.799l76.054 19.416z" fill="#aeafaf" />
  <path d="m76.393 140.309 88.938 9.487 45.359-81.98-182.054-9.487z" fill="#b9bfc1" />
  <path d="m131.628.543c-2.069.468-4.069 1.23-5.928 2.288l-94.812 54.008c-.786.448-1.533.952-2.252 1.491l182.054 9.487z" fill="#cbd3d8" />
  <path d="m483.365 58.329c2.624 1.966 4.783 4.501 6.287 7.441l19.677 44.324c1.718 3.357 2.497 7.082 2.332 10.799l-76.054 19.416z" fill="#dadfe3" />
  <path d="m435.607 140.309-88.938 9.487-45.359-81.98 182.055-9.487z" fill="#edf1f4" />
  <path d="m380.372.543c2.069.468 4.069 1.23 5.928 2.288l94.812 54.007c.786.448 1.533.952 2.253 1.491l-182.055 9.487z" fill="#cbd3d8" />
  <path d="m380.372.543c-1.558-.352-3.154-.543-4.765-.543h-119.598-.018-119.598c-1.611 0-3.206.191-4.764.543l79.061 67.273h90.621z" fill="#edf1f4" />
  <path d="m165.331 149.796h181.338l-45.359-81.98h-90.62z" fill="#cbd3d8" />
  <path d="m313.774 505.138c24.107-5.828 46.818-15.225 67.552-27.595l54.28-337.234-88.938 9.487z" fill="#cbd3d8" />
  <path d="m511.661 120.893-76.054 19.416-54.28 337.234c19.498-11.632 37.25-25.886 52.754-42.291l76.935-309.923c.377-1.461.579-2.948.645-4.436z" fill="#edf1f4" />
  <path d="m313.774 505.138 32.894-355.342h-181.337l32.894 355.336c18.527 4.48 37.871 6.868 57.775 6.868 19.903 0 39.248-2.383 57.774-6.862z" fill="#dce2e6" />
  <path d="m130.675 477.552c20.731 12.369 43.446 21.752 67.55 27.58l-32.894-355.336-88.938-9.487z" fill="#cbd3d8" />
  <path d="m76.393 140.31-76.054-19.417c.066 1.488.268 2.974.645 4.436l76.931 309.908c15.506 16.412 33.256 30.679 52.759 42.315z" fill="#b9bfc1" />
  <path d="m256 228.628v248.924s.521 20.615 22.222 33.45c12.127-1.093 23.999-3.07 35.553-5.863l32.894-355.342c0-.001-90.669 8.145-90.669 78.831z" fill="#edf1f4" />
  <path d="m289.539 0h-33.53-.018-119.598c-1.611 0-3.206.191-4.764.543l79.061 67.273h90.621c-33.596-33.595-22.963-56.252-11.772-67.816z" fill="#dce2e6" />
</svg>