<?xml version="1.0" encoding="UTF-8"?>
<svg enable-background="new 0 0 63.5 63.5" version="1.1" viewBox="0 0 63.5 63.5" xml:space="preserve" xmlns="http://www.w3.org/2000/svg">
  <path d="m56.467 41.533c0 12.132-9.835 21.967-21.968 21.967-12.131 0-21.966-9.835-21.966-21.967s9.835-21.967 21.966-21.967c12.133 0 21.968 9.835 21.968 21.967z" fill="#FF917B" />
  <path d="m34.965 12.242s-0.317-7.723 8.017-5.779 8.227-2.196 8.227-2.196 2.409 14.855-9.458 10.756c0 0-3.741-1.39-6.786-2.781z" fill="#81BDA4" />
  <path d="m35.125 12.986s1.052-7.658-7.43-6.517c-8.481 1.142-7.981-2.969-7.981-2.969s-3.811 14.558 8.391 11.608c0 0 3.857-1.028 7.02-2.122z" fill="#81BDA4" />
  <path d="M30.499,63C17.56,63,7.033,52.472,7.033,39.533S17.56,16.066,30.499,16.066 c12.94,0,23.468,10.528,23.468,23.467S43.439,63,30.499,63z M30.499,19.066c-11.285,0-20.466,9.181-20.466,20.467    S19.214,60,30.499,60c11.286,0,20.468-9.181,20.468-20.467S41.785,19.066,30.499,19.066z" />
  <path d="m30.965 11.743c-0.639 0-1.231-0.411-1.432-1.053-0.246-0.791 0.194-1.632 0.986-1.879 0.232-0.073 5.745-1.771 9.742-0.998 0.813 0.157 1.345 0.944 1.188 1.757s-0.946 1.346-1.757 1.188c-2.708-0.523-6.895 0.484-8.28 0.917-0.148 0.046-0.299 0.068-0.447 0.068z" />
  <path d="m41.468 15.238c-1.259 0-2.674-0.268-4.206-0.797-0.188-0.07-3.86-1.437-6.92-2.833-0.514-0.235-0.852-0.739-0.875-1.304-6e-3 -0.14-0.117-3.468 2.033-5.708 1.759-1.832 4.419-2.388 7.823-1.594 1.366 0.319 2.562 0.48 3.556 0.48 2.029 0 2.793-0.665 2.831-1.235-0.021-0.789 0.574-1.429 1.36-1.503 0.788-0.076 1.494 0.504 1.62 1.283 0.048 0.293 1.131 7.241-2.015 10.937-1.266 1.488-3.067 2.274-5.207 2.274zm-8.94-5.94c2.745 1.201 5.713 2.306 5.746 2.318 2.805 0.968 4.907 0.821 6.114-0.593 1.041-1.221 1.419-3.224 1.504-5.039-1.728 0.679-4.15 0.663-7.25-0.06-2.293-0.535-3.964-0.295-4.967 0.738-0.754 0.778-1.039 1.873-1.147 2.636z" />
  <path d="m21.129 15.002c-3.097 0-4.816-1.385-5.712-2.546-3.043-3.941-1.232-11.036-1.154-11.336 0.2-0.763 0.96-1.239 1.733-1.094 0.775 0.148 1.303 0.872 1.207 1.655l1e-3 -1e-3c4e-3 0 0.015 0.299 0.309 0.601 0.322 0.332 1.201 0.889 3.464 0.889 0.75 0 1.597-0.063 2.518-0.187 3.329-0.45 5.849 0.271 7.451 2.108 2.137 2.451 1.686 5.951 1.665 6.099-0.076 0.56-0.461 1.029-0.995 1.214-3.178 1.099-6.965 2.11-7.124 2.153-1.233 0.298-2.353 0.445-3.363 0.445zm-4.458-9.678c-0.091 1.884 0.112 3.996 1.123 5.302 0.717 0.926 1.807 1.376 3.334 1.376h1e-3c0.773 0 1.656-0.119 2.624-0.352 4e-3 -2e-3 3.06-0.818 5.907-1.753-0.036-0.804-0.231-1.989-0.985-2.846-0.904-1.026-2.538-1.397-4.779-1.095-3.154 0.424-5.566 0.212-7.225-0.632z" />
  <path d="m31.124 12.486c-0.193 0-0.39-0.038-0.579-0.117-0.048-0.021-4.857-2.013-8.156-1.7-0.819 0.084-1.557-0.526-1.636-1.351s0.526-1.557 1.351-1.636c4.055-0.385 9.378 1.827 9.602 1.921 0.764 0.321 1.123 1.199 0.802 1.963-0.24 0.574-0.798 0.92-1.384 0.92z" />
  <path d="m30.498 17.947c-0.652 0-1.252-0.429-1.441-1.088-0.807-2.825 0.416-7.746 0.558-8.299 0.206-0.802 1.027-1.283 1.825-1.078 0.803 0.206 1.286 1.023 1.08 1.825-0.457 1.784-1.019 5.187-0.578 6.728 0.227 0.797-0.234 1.627-1.03 1.854-0.138 0.039-0.277 0.058-0.414 0.058z" />
  <path d="m39.732 24.856c0 1.046-0.848 1.894-1.894 1.894s-1.893-0.848-1.893-1.894 0.847-1.893 1.893-1.893 1.894 0.847 1.894 1.893z" />
  <path d="m31.896 30.453c0 1.046-0.848 1.894-1.894 1.894-1.045 0-1.893-0.848-1.893-1.894s0.848-1.893 1.893-1.893c1.046 0 1.894 0.847 1.894 1.893z" />
  <path d="m31.896 39.409c0 1.045-0.848 1.893-1.894 1.893-1.045 0-1.893-0.848-1.893-1.893 0-1.046 0.848-1.894 1.893-1.894 1.046 0 1.894 0.848 1.894 1.894z" />
  <path d="m47.568 40.528c0 1.046-0.848 1.894-1.894 1.894s-1.893-0.848-1.893-1.894 0.847-1.894 1.893-1.894 1.894 0.848 1.894 1.894z" />
  <path d="m17.343 40.528c0 1.046-0.847 1.894-1.893 1.894s-1.894-0.848-1.894-1.894 0.848-1.894 1.894-1.894 1.893 0.848 1.893 1.894z" />
  <path d="m44.21 32.692c0 1.046-0.848 1.894-1.894 1.894-1.045 0-1.894-0.848-1.894-1.894s0.849-1.893 1.894-1.893c1.046 0 1.894 0.847 1.894 1.893z" />
  <path d="m22.512 24.856c0 1.046 0.847 1.894 1.893 1.894s1.894-0.848 1.894-1.894-0.848-1.893-1.894-1.893-1.893 0.847-1.893 1.893z" />
  <path d="m18.034 32.692c0 1.046 0.848 1.894 1.893 1.894 1.046 0 1.894-0.848 1.894-1.894s-0.848-1.893-1.894-1.893c-1.045 0-1.893 0.847-1.893 1.893z" />
</svg>
