<?xml version="1.0" encoding="UTF-8"?>
<svg enable-background="new 0 0 63.5 63.5" version="1.1" viewBox="0 0 63.5 63.5" xml:space="preserve" xmlns="http://www.w3.org/2000/svg">
  <path d="m40.85 18.404c-2.212 0-4.345 0.357-6.35 1.02-2.006-0.663-4.138-1.02-6.35-1.02-11.754 0-21.284 10.095-21.284 22.548s9.53 22.548 21.284 22.548c2.212 0 4.344-0.358 6.35-1.02 2.005 0.662 4.138 1.02 6.35 1.02 11.755 0 21.284-10.095 21.284-22.548s-9.529-22.548-21.284-22.548z" fill="#81BDA4" />
  <path d="m38.786 25.73c-1.493 0-2.933 0.241-4.286 0.689-1.353-0.448-2.793-0.689-4.286-0.689-7.937 0-14.369 6.815-14.369 15.222s6.432 15.222 14.369 15.222c1.493 0 2.933-0.242 4.286-0.689 1.353 0.447 2.793 0.689 4.286 0.689 7.937 0 14.369-6.815 14.369-15.222s-6.432-15.222-14.369-15.222z" fill="#EDC951" />
  <path d="m39.102 40.626c0 4.092-2.187 7.408-4.885 7.408-2.697 0-4.884-3.316-4.884-7.408 0-4.091 2.187-7.407 4.884-7.407 2.698 0 4.885 3.316 4.885 7.407z" fill="#E56A77" />
  <path d="m36.131 8.398s0.383-6.794 7.517-4.378c7.135 2.416 13.597 4.98 13.597 4.98s-5.361 7.02-15.407 2.414c0 0-3.158-1.538-5.707-3.016z" fill="#81BDA4" />
  <path d="m34.786 55.674c-1.456 0-2.895-0.207-4.286-0.618-1.391 0.411-2.83 0.618-4.286 0.618-8.75 0-15.869-7.501-15.869-16.722s7.119-16.722 15.869-16.722c1.457 0 2.896 0.207 4.286 0.617 1.39-0.41 2.829-0.617 4.286-0.617 8.75 0 15.869 7.501 15.869 16.722s-7.119 16.722-15.869 16.722zm-4.286-3.689c0.159 0 0.317 0.026 0.471 0.076 1.231 0.407 2.514 0.613 3.815 0.613 7.096 0 12.869-6.156 12.869-13.722s-5.773-13.722-12.869-13.722c-1.302 0-2.585 0.206-3.815 0.613-0.305 0.101-0.637 0.101-0.942 0-1.23-0.407-2.513-0.613-3.815-0.613-7.096 0-12.869 6.156-12.869 13.722s5.773 13.722 12.869 13.722c1.301 0 2.584-0.206 3.815-0.613 0.154-0.05 0.312-0.076 0.471-0.076z" />
  <path d="m36.85 63c-2.161 0-4.294-0.318-6.35-0.946-2.056 0.628-4.189 0.946-6.35 0.946-12.563 0-22.784-10.788-22.784-24.048 0-13.261 10.221-24.049 22.784-24.049 2.161 0 4.293 0.318 6.35 0.947 2.057-0.629 4.189-0.947 6.35-0.947 12.563 0 22.784 10.788 22.784 24.049 0 13.26-10.221 24.048-22.784 24.048zm-6.35-4.02c0.159 0 0.318 0.025 0.471 0.075 1.895 0.627 3.873 0.945 5.879 0.945 10.909 0 19.784-9.442 19.784-21.048 0-11.607-8.875-21.049-19.784-21.049-2.005 0-3.983 0.318-5.879 0.945-0.305 0.101-0.637 0.101-0.942 0-1.896-0.627-3.874-0.945-5.879-0.945-10.909 0-19.784 9.442-19.784 21.049 0 11.606 8.875 21.048 19.784 21.048 2.006 0 3.984-0.318 5.879-0.945 0.153-0.05 0.312-0.075 0.471-0.075z" />
  <path d="m30.218 47.534c-3.58 0-6.385-3.913-6.385-8.908s2.805-8.907 6.385-8.907 6.384 3.912 6.384 8.907-2.804 8.908-6.384 8.908zm0-14.816c-1.601 0-3.385 2.427-3.385 5.908 0 3.482 1.784 5.908 3.385 5.908 1.6 0 3.384-2.426 3.384-5.908 0-3.481-1.784-5.908-3.384-5.908z" />
  <path d="m45.415 12.48c-2.314 0-4.738-0.573-7.202-1.703-0.162-0.078-3.269-1.593-5.835-3.082-0.488-0.283-0.776-0.818-0.745-1.382 0.124-2.183 1.583-6.313 6.223-6.313 0.999 0 2.1 0.202 3.274 0.599 7.089 2.401 13.603 4.981 13.669 5.007 0.436 0.173 0.766 0.541 0.891 0.994 0.126 0.452 0.033 0.937-0.252 1.311-0.143 0.186-3.565 4.569-10.023 4.569zm-10.644-6.875c2.271 1.264 4.696 2.447 4.723 2.46 2.038 0.934 4.041 1.415 5.921 1.415 2.756 0 4.788-1.023 6.062-1.945-2.492-0.954-6.783-2.562-11.31-4.094-0.862-0.293-1.64-0.441-2.311-0.441-2.072 0-2.817 1.541-3.085 2.605z" />
  <path d="m30.498 17.903c-0.783 0-1.442-0.608-1.495-1.401-0.126-1.927 1.022-9.015 1.153-9.817 7e-3 -0.039 0.015-0.077 0.024-0.116 0.04-0.159 1.009-3.929 5.175-6.192 0.727-0.395 1.638-0.126 2.035 0.602 0.395 0.728 0.125 1.639-0.603 2.034-2.776 1.508-3.571 3.859-3.682 4.236-0.476 2.91-1.186 7.872-1.108 9.055 0.054 0.827-0.572 1.542-1.398 1.596-0.034 2e-3 -0.068 3e-3 -0.101 3e-3z" />
</svg>
