<?xml version="1.0" encoding="UTF-8"?>
<svg enable-background="new 0 0 63.5 63.5" version="1.1" viewBox="0 0 63.5 63.5" xml:space="preserve" xmlns="http://www.w3.org/2000/svg">
  <path d="m47.427 39.837c-0.922-0.755-3.176-2.617-3.176-2.617-3.677-2.299-4.143-6.395-4.143-11.052 0 0 1.467-12.524-7.23-12.524-8.95 0-7.231 12.524-7.231 12.524 0 4.657-0.465 8.753-4.142 11.052 0 0-2.254 1.862-3.176 2.617-3.066 2.51-5.235 6.154-5.235 10.421 0 7.173 3.982 11.553 11.01 12.989 5.108 1.043 8.774-1.471 8.774-1.471s3.666 2.514 8.774 1.471c7.028-1.436 11.01-5.816 11.01-12.989 0-4.267-2.17-7.911-5.235-10.421z" fill="#EDC951" />
  <path d="m35.317 8.276s0.374-6.625 7.331-4.269 13.258 4.856 13.258 4.856-5.228 6.845-15.023 2.354c0 0-3.08-1.5-5.566-2.941z" fill="#81BDA4" />
  <path d="m35.158 63c-2.888 0-5.13-0.908-6.28-1.498-1.15 0.59-3.392 1.498-6.28 1.498-0.932 0-1.872-0.095-2.794-0.283-7.874-1.609-12.21-6.744-12.21-14.459 0-4.414 2.054-8.528 5.785-11.582 0.92-0.754 3.171-2.612 3.171-2.612 0.051-0.042 0.104-0.08 0.16-0.115 2.856-1.787 3.43-4.908 3.437-9.687-0.118-0.975-0.784-7.663 2.547-11.483 1.525-1.748 3.605-2.635 6.184-2.635 2.477 0 4.496 0.859 6.002 2.552 3.393 3.813 2.823 10.63 2.728 11.552 7e-3 4.787 0.579 7.912 3.438 9.701 0.056 0.035 0.109 0.073 0.16 0.115 0 0 2.25 1.859 3.171 2.612 3.73 3.055 5.785 7.168 5.785 11.582 0 7.715-4.337 12.85-12.21 14.459-0.922 0.188-1.862 0.283-2.794 0.283zm-6.28-4.724c0.296 0 0.593 0.088 0.848 0.263 0.015 0.01 2.218 1.461 5.432 1.461 0.73 0 1.468-0.074 2.193-0.223 6.51-1.33 9.811-5.205 9.811-11.519 0-3.498-1.664-6.787-4.686-9.261-0.824-0.675-2.713-2.234-3.107-2.56-4.391-2.808-4.761-7.802-4.761-12.269 0-0.057 4e-3 -0.116 0.01-0.173 7e-3 -0.063 0.689-6.314-1.983-9.31-0.925-1.037-2.154-1.541-3.757-1.541-1.697 0-2.98 0.526-3.923 1.607-2.188 2.508-2.057 7.501-1.822 9.213 9e-3 0.068 0.014 0.135 0.014 0.204 0 4.467-0.369 9.462-4.76 12.269-0.394 0.326-2.283 1.885-3.108 2.56-3.021 2.474-4.685 5.763-4.685 9.261 0 6.314 3.301 10.189 9.811 11.519 0.725 0.149 1.463 0.223 2.193 0.223 3.211 0 5.41-1.446 5.432-1.461 0.255-0.175 0.551-0.263 0.848-0.263z" />
  <path d="m31.901 48.629-0.055-7.473 3.901 6.374c0.599 0.978 0.291 2.256-0.687 2.854-0.978 0.599-2.255 0.291-2.854-0.687-0.203-0.331-0.301-0.706-0.305-1.068z" />
  <path d="m22.998 47.53 3.902-6.374-0.056 7.473c-8e-3 1.147-0.944 2.069-2.091 2.06-1.146-8e-3 -2.069-0.944-2.06-2.091 3e-3 -0.388 0.117-0.758 0.305-1.068z" />
  <path d="m43.296 12.244c-2.263 0-4.631-0.56-7.039-1.664-0.159-0.077-3.189-1.555-5.692-3.007-0.489-0.283-0.777-0.818-0.745-1.382 0.121-2.141 1.552-6.191 6.106-6.191 0.977 0 2.055 0.198 3.203 0.586 6.914 2.342 13.266 4.858 13.33 4.883 0.436 0.173 0.766 0.541 0.892 0.994 0.125 0.452 0.032 0.937-0.254 1.311-0.139 0.182-3.487 4.47-9.801 4.47zm-10.335-6.76c2.203 1.226 4.551 2.371 4.578 2.384 1.981 0.908 3.929 1.376 5.757 1.376 2.641 0 4.595-0.963 5.834-1.849-2.437-0.932-6.587-2.485-10.963-3.967-0.838-0.284-1.592-0.428-2.241-0.428-1.977 0-2.701 1.459-2.965 2.484z" />
  <path d="m28.876 13.144c-0.783 0-1.443-0.608-1.495-1.401-0.127-1.938 0.86-4.864 1.048-5.4 0.171-0.604 1.265-3.921 5.041-5.971 0.729-0.396 1.638-0.126 2.034 0.602 0.395 0.728 0.125 1.639-0.603 2.035-2.873 1.559-3.559 4.048-3.587 4.154-0.01 0.04-0.026 0.093-0.04 0.132-0.385 1.083-0.969 3.195-0.9 4.251 0.055 0.826-0.571 1.541-1.398 1.595-0.033 2e-3 -0.066 3e-3 -0.1 3e-3z" />
</svg>
